<svg xmlns="http://www.w3.org/2000/svg" width="36" height="34" viewBox="0 0 36 34" fill="none"><path d="M16.2651 1.60056C16.8814 0.174161 18.9807 0.174162 19.5971 1.60056L23.2349 10.0194C23.4949 10.6208 24.0824 11.0316 24.7568 11.0837L34.1993 11.8123C35.7992 11.9358 36.4479 13.8575 35.229 14.8626L28.0348 20.7943C27.521 21.2181 27.2965 21.8829 27.4535 22.5163L29.6514 31.3855C30.0238 32.8882 28.3255 34.076 26.9558 33.2708L18.8716 28.5178C18.2942 28.1783 17.568 28.1783 16.9905 28.5178L8.90634 33.2708C7.53663 34.076 5.83828 32.8882 6.21067 31.3855L8.40864 22.5163C8.56563 21.8829 8.34122 21.2181 7.82737 20.7943L0.633078 14.8626C-0.58584 13.8575 0.0628804 11.9358 1.66273 11.8123L11.1054 11.0837C11.7798 11.0316 12.3673 10.6208 12.6272 10.0194L16.2651 1.60056Z" fill="#F47920"></path></svg>