<svg xmlns="http://www.w3.org/2000/svg" width="74" height="64" viewBox="0 0 74 64" fill="none"><path opacity="0.2" d="M18.2006 63.9995C12.6127 63.9995 8.14239 62.0242 4.78964 58.0736C1.59655 53.965 0 48.6711 0 42.1921C0 33.3427 2.39482 25.3625 7.18447 18.2514C12.1338 10.9822 19.6375 4.89827 29.6958 -0.000488281L32.3301 3.7921C27.5405 6.63654 23.1499 10.6662 19.1586 15.881C15.3269 20.9378 13.411 26.0736 13.411 31.2884C13.411 32.7106 13.8101 33.8958 14.6084 34.8439C15.4067 35.6341 16.6041 36.0291 18.2006 36.0291C22.192 36.0291 25.5448 37.4514 28.2589 40.2958C31.1327 42.9822 32.5696 46.3008 32.5696 50.2514C32.5696 54.202 31.1327 57.5205 28.2589 60.2069C25.5448 62.7353 22.192 63.9995 18.2006 63.9995ZM59.6311 63.9995C54.0431 63.9995 49.5728 62.0242 46.2201 58.0736C43.027 53.965 41.4304 48.6711 41.4304 42.1921C41.4304 33.3427 43.8252 25.3625 48.6149 18.2514C53.5642 10.9822 61.068 4.89827 71.1262 -0.000488281L73.7605 3.7921C68.9709 6.63654 64.5804 10.6662 60.589 15.881C56.7573 20.9378 54.8414 26.0736 54.8414 31.2884C54.8414 32.7106 55.2406 33.8958 56.0388 34.8439C56.8371 35.6341 58.0345 36.0291 59.6311 36.0291C63.6224 36.0291 66.9752 37.4514 69.6893 40.2958C72.5631 42.9822 74 46.3008 74 50.2514C74 54.202 72.5631 57.5205 69.6893 60.2069C66.9752 62.7353 63.6224 63.9995 59.6311 63.9995Z" fill="#D9D9D9"></path></svg>