<svg xmlns="http://www.w3.org/2000/svg" width="37" height="34" viewBox="0 0 37 34" fill="none"><path d="M16.8512 1.5698C17.4676 0.143399 19.5669 0.143401 20.1833 1.5698L23.8211 9.98867C24.0811 10.59 24.6686 11.0009 25.343 11.0529L34.7855 11.7816C36.3854 11.905 37.0341 13.8268 35.8152 14.8318L28.621 20.7635C28.1072 21.1873 27.8827 21.8521 28.0396 22.4855L30.2376 31.3548C30.61 32.8574 28.9117 34.0452 27.542 33.24L19.4578 28.4871C18.8804 28.1476 18.1542 28.1476 17.5767 28.4871L9.49253 33.24C8.12281 34.0452 6.42446 32.8574 6.79685 31.3548L8.99482 22.4855C9.15182 21.8521 8.9274 21.1873 8.41355 20.7635L1.21926 14.8318C0.000341594 13.8268 0.649062 11.905 2.24891 11.7816L11.6915 11.0529C12.366 11.0009 12.9535 10.59 13.2134 9.98867L16.8512 1.5698Z" fill="#F47920"></path></svg>