<svg xmlns="http://www.w3.org/2000/svg" width="10" height="25" viewBox="0 0 10 25" fill="none"><path d="M9.5 6.5H6.5C5.9477 6.5 5.5 6.94772 5.5 7.5V10.5H9.5C9.6137 10.4975 9.7216 10.5504 9.7892 10.6419C9.8568 10.7334 9.8758 10.852 9.84 10.96L9.1 13.16C9.0318 13.3619 8.8431 13.4984 8.63 13.5H5.5V21C5.5 21.2761 5.2761 21.5 5 21.5H2.5C2.22386 21.5 2 21.2761 2 21V13.5H0.5C0.22386 13.5 0 13.2761 0 13V11C0 10.7239 0.22386 10.5 0.5 10.5H2V7.5C2 5.29086 3.7909 3.5 6 3.5H9.5C9.7761 3.5 10 3.72386 10 4V6C10 6.27614 9.7761 6.5 9.5 6.5Z" fill="#1F1D1F"></path></svg>