<svg xmlns="http://www.w3.org/2000/svg" width="37" height="34" viewBox="0 0 37 34" fill="none"><path d="M16.851 1.60056C17.4674 0.174161 19.5667 0.174162 20.183 1.60056L23.8208 10.0194C24.0808 10.6208 24.6684 11.0316 25.3428 11.0837L34.7853 11.8123C36.3851 11.9358 37.0338 13.8575 35.8149 14.8626L28.6208 20.7943C28.1069 21.2181 27.8824 21.8829 28.0394 22.5163L30.2374 31.3855C30.6097 32.8882 28.9115 34.076 27.5417 33.2708L19.4576 28.5178C18.8801 28.1783 18.1539 28.1783 17.5765 28.5178L9.49228 33.2708C8.12257 34.076 6.42421 32.8882 6.7966 31.3855L8.99457 22.5163C9.15157 21.8829 8.92715 21.2181 8.41331 20.7943L1.21902 14.8626C9.74536e-05 13.8575 0.648818 11.9358 2.24867 11.8123L11.6913 11.0837C12.3658 11.0316 12.9533 10.6208 13.2131 10.0194L16.851 1.60056Z" fill="#F47920"></path></svg>