<svg xmlns="http://www.w3.org/2000/svg" width="74" height="65" viewBox="0 0 74 65" fill="none"><path opacity="0.2" d="M18.2006 64.9688C12.6127 64.9688 8.14239 62.9934 4.78964 59.0428C1.59655 54.9342 0 49.6404 0 43.1613C0 34.312 2.39482 26.3317 7.18447 19.2206C12.1338 11.9515 19.6375 5.86751 29.6958 0.96875L32.3301 4.76134C27.5405 7.60578 23.1499 11.6354 19.1586 16.8502C15.3269 21.907 13.411 27.0428 13.411 32.2576C13.411 33.6799 13.8101 34.865 14.6084 35.8132C15.4067 36.6033 16.6041 36.9984 18.2006 36.9984C22.192 36.9984 25.5448 38.4206 28.2589 41.265C31.1327 43.9515 32.5696 47.27 32.5696 51.2206C32.5696 55.1712 31.1327 58.4897 28.2589 61.1762C25.5448 63.7046 22.192 64.9688 18.2006 64.9688ZM59.6311 64.9688C54.0431 64.9688 49.5728 62.9934 46.2201 59.0428C43.027 54.9342 41.4304 49.6404 41.4304 43.1613C41.4304 34.312 43.8252 26.3317 48.6149 19.2206C53.5642 11.9515 61.068 5.86751 71.1262 0.96875L73.7605 4.76134C68.9709 7.60578 64.5804 11.6354 60.589 16.8502C56.7573 21.907 54.8414 27.0428 54.8414 32.2576C54.8414 33.6799 55.2406 34.865 56.0388 35.8132C56.8371 36.6033 58.0345 36.9984 59.6311 36.9984C63.6224 36.9984 66.9752 38.4206 69.6893 41.265C72.5631 43.9515 74 47.27 74 51.2206C74 55.1712 72.5631 58.4897 69.6893 61.1762C66.9752 63.7046 63.6224 64.9688 59.6311 64.9688Z" fill="white"></path></svg>