<svg xmlns="http://www.w3.org/2000/svg" width="37" height="34" viewBox="0 0 37 34" fill="none"><path d="M16.9892 1.5698C17.6055 0.143399 19.7048 0.143401 20.3212 1.5698L23.959 9.98867C24.219 10.59 24.8065 11.0009 25.481 11.0529L34.9235 11.7816C36.5233 11.905 37.172 13.8268 35.9531 14.8318L28.759 20.7635C28.2451 21.1873 28.0206 21.8521 28.1776 22.4855L30.3755 31.3548C30.7479 32.8574 29.0496 34.0452 27.6799 33.24L19.5957 28.4871C19.0183 28.1476 18.2921 28.1476 17.7147 28.4871L9.63047 33.24C8.26075 34.0452 6.5624 32.8574 6.93479 31.3548L9.13276 22.4855C9.28975 21.8521 9.06534 21.1873 8.55149 20.7635L1.3572 14.8318C0.138281 13.8268 0.787002 11.905 2.38685 11.7816L11.8295 11.0529C12.5039 11.0009 13.0915 10.59 13.3513 9.98867L16.9892 1.5698Z" fill="#F47920"></path></svg>