<svg xmlns="http://www.w3.org/2000/svg" width="37" height="34" viewBox="0 0 37 34" fill="none"><path d="M17.1271 1.5698C17.7435 0.143399 19.8428 0.143401 20.4592 1.5698L24.0969 9.98867C24.3569 10.59 24.9445 11.0009 25.6189 11.0529L35.0614 11.7816C36.6612 11.905 37.31 13.8268 36.091 14.8318L28.8969 20.7635C28.3831 21.1873 28.1585 21.8521 28.3155 22.4855L30.5135 31.3548C30.8858 32.8574 29.1876 34.0452 27.8178 33.24L19.7337 28.4871C19.1562 28.1476 18.43 28.1476 17.8526 28.4871L9.7684 33.24C8.39869 34.0452 6.70034 32.8574 7.07273 31.3548L9.2707 22.4855C9.42769 21.8521 9.20328 21.1873 8.68943 20.7635L1.49514 14.8318C0.276221 13.8268 0.924941 11.905 2.52479 11.7816L11.9674 11.0529C12.6419 11.0009 13.2294 10.59 13.4892 9.98867L17.1271 1.5698Z" fill="#F47920"></path></svg>