<svg xmlns="http://www.w3.org/2000/svg" width="37" height="34" viewBox="0 0 37 34" fill="none"><path d="M17.1269 1.5698C17.7432 0.143399 19.8425 0.143401 20.4589 1.5698L24.0967 9.98867C24.3567 10.59 24.9442 11.0009 25.6187 11.0529L35.0612 11.7816C36.661 11.905 37.3097 13.8268 36.0908 14.8318L28.8966 20.7635C28.3828 21.1873 28.1583 21.8521 28.3153 22.4855L30.5132 31.3548C30.8856 32.8574 29.1873 34.0452 27.8176 33.24L19.7334 28.4871C19.156 28.1476 18.4298 28.1476 17.8524 28.4871L9.76816 33.24C8.39845 34.0452 6.70009 32.8574 7.07248 31.3548L9.27045 22.4855C9.42745 21.8521 9.20303 21.1873 8.68919 20.7635L1.49489 14.8318C0.275976 13.8268 0.924697 11.905 2.52455 11.7816L11.9672 11.0529C12.6416 11.0009 13.2292 10.59 13.489 9.98867L17.1269 1.5698Z" fill="#F47920"></path></svg>