<svg xmlns="http://www.w3.org/2000/svg" width="37" height="34" viewBox="0 0 37 34" fill="none"><path d="M16.7133 1.60056C17.3297 0.174161 19.429 0.174162 20.0453 1.60056L23.6831 10.0194C23.9431 10.6208 24.5307 11.0316 25.2051 11.0837L34.6476 11.8123C36.2474 11.9358 36.8961 13.8575 35.6772 14.8626L28.4831 20.7943C27.9692 21.2181 27.7447 21.8829 27.9017 22.5163L30.0997 31.3855C30.472 32.8882 28.7738 34.076 27.404 33.2708L19.3199 28.5178C18.7424 28.1783 18.0162 28.1783 17.4388 28.5178L9.35459 33.2708C7.98487 34.076 6.28652 32.8882 6.65891 31.3855L8.85688 22.5163C9.01388 21.8829 8.78946 21.2181 8.27561 20.7943L1.08132 14.8626C-0.137598 13.8575 0.511123 11.9358 2.11097 11.8123L11.5536 11.0837C12.2281 11.0316 12.8156 10.6208 13.0754 10.0194L16.7133 1.60056Z" fill="#F47920"></path></svg>