<svg xmlns="http://www.w3.org/2000/svg" width="36" height="34" viewBox="0 0 36 34" fill="none"><path d="M16.2651 1.5698C16.8814 0.143399 18.9807 0.143401 19.5971 1.5698L23.2349 9.98867C23.4949 10.59 24.0824 11.0009 24.7568 11.0529L34.1993 11.7816C35.7992 11.905 36.4479 13.8268 35.229 14.8318L28.0348 20.7635C27.521 21.1873 27.2965 21.8521 27.4535 22.4855L29.6514 31.3548C30.0238 32.8574 28.3255 34.0452 26.9558 33.24L18.8716 28.4871C18.2942 28.1476 17.568 28.1476 16.9905 28.4871L8.90634 33.24C7.53663 34.0452 5.83828 32.8574 6.21067 31.3548L8.40864 22.4855C8.56563 21.8521 8.34122 21.1873 7.82737 20.7635L0.633078 14.8318C-0.58584 13.8268 0.0628804 11.905 1.66273 11.7816L11.1054 11.0529C11.7798 11.0009 12.3673 10.59 12.6272 9.98867L16.2651 1.5698Z" fill="#F47920"></path></svg>