<svg xmlns="http://www.w3.org/2000/svg" width="74" height="65" viewBox="0 0 74 65" fill="none"><path opacity="0.2" d="M55.7994 0.46875C61.3873 0.46875 65.8576 2.44405 69.2104 6.39466C72.4035 10.5033 74 15.7971 74 22.2762C74 31.1255 71.6052 39.1058 66.8155 46.2169C61.8662 53.486 54.3625 59.57 44.3042 64.4688L41.6699 60.6762C46.4595 57.8317 50.8501 53.8021 54.8414 48.5873C58.6731 43.5305 60.589 38.3947 60.589 33.1799C60.589 31.7576 60.1899 30.5725 59.3916 29.6243C58.5933 28.8342 57.3959 28.4391 55.7994 28.4391C51.808 28.4391 48.4552 27.0169 45.7411 24.1725C42.8673 21.486 41.4304 18.1675 41.4304 14.2169C41.4304 10.2663 42.8673 6.94776 45.7411 4.26134C48.4552 1.73294 51.808 0.46875 55.7994 0.46875ZM14.3689 0.46875C19.9569 0.46875 24.4272 2.44405 27.7799 6.39466C30.973 10.5033 32.5696 15.7971 32.5696 22.2762C32.5696 31.1255 30.1748 39.1058 25.3851 46.2169C20.4358 53.486 12.932 59.57 2.87379 64.4688L0.239487 60.6762C5.02913 57.8317 9.41964 53.8021 13.411 48.5873C17.2427 43.5305 19.1586 38.3947 19.1586 33.1799C19.1586 31.7576 18.7594 30.5725 17.9612 29.6243C17.1629 28.8342 15.9655 28.4391 14.3689 28.4391C10.3776 28.4391 7.02482 27.0169 4.31068 24.1725C1.4369 21.486 0 18.1675 0 14.2169C0 10.2663 1.4369 6.94776 4.31068 4.26134C7.02482 1.73294 10.3776 0.46875 14.3689 0.46875Z" fill="#D9D9D9"></path></svg>