<svg xmlns="http://www.w3.org/2000/svg" width="37" height="34" viewBox="0 0 37 34" fill="none"><path d="M16.7133 1.5698C17.3297 0.143399 19.429 0.143401 20.0453 1.5698L23.6831 9.98867C23.9431 10.59 24.5307 11.0009 25.2051 11.0529L34.6476 11.7816C36.2474 11.905 36.8961 13.8268 35.6772 14.8318L28.4831 20.7635C27.9692 21.1873 27.7447 21.8521 27.9017 22.4855L30.0997 31.3548C30.472 32.8574 28.7738 34.0452 27.404 33.24L19.3199 28.4871C18.7424 28.1476 18.0162 28.1476 17.4388 28.4871L9.35459 33.24C7.98487 34.0452 6.28652 32.8574 6.65891 31.3548L8.85688 22.4855C9.01388 21.8521 8.78946 21.1873 8.27561 20.7635L1.08132 14.8318C-0.137598 13.8268 0.511123 11.905 2.11097 11.7816L11.5536 11.0529C12.2281 11.0009 12.8156 10.59 13.0754 9.98867L16.7133 1.5698Z" fill="#F47920"></path></svg>