<svg xmlns="http://www.w3.org/2000/svg" width="80" height="42" viewBox="0 0 80 42" fill="none"><path d="M57.9727 11.5797L58.0935 5.24902L63.7856 8.91567L57.9727 11.5797Z" fill="#E0E0E0"></path><path d="M57.1855 10.6324L57.3064 4.30176L62.9984 7.96841L57.1855 10.6324Z" stroke="#F47920" stroke-width="7.02255" stroke-linecap="round" stroke-linejoin="round"></path><path d="M40.4358 28.6745C41.8192 28.6745 42.6109 27.9625 42.9568 27.0458V16.1932C42.9568 15.8863 42.9901 15.8208 43.1985 15.8208H48.553C48.7947 15.8208 48.828 15.8208 48.828 16.2955V32.5458C48.828 32.8158 48.7475 32.9509 48.5863 32.9509H43.5776C43.3026 32.9509 43.1276 32.9181 43.1276 32.4434V30.7452C42.4026 32.7135 40.3983 33.4624 37.7397 33.4624C34.1478 33.4624 32.3519 31.494 32.3852 27.8642L32.4894 16.3978C32.4894 15.9231 32.5561 15.8208 32.8352 15.8208H38.0523C38.2939 15.8208 38.3606 15.9231 38.3606 16.2955L38.2565 26.4401C38.2565 27.9666 39.2607 28.6786 40.4316 28.6786" fill="url(#paint0_linear_1_4837)"></path><path d="M65.7563 23.1108C65.7563 24.2975 65.6897 24.8418 65.548 25.4188C65.4771 25.7584 65.3772 25.828 64.8563 25.828H54.5306C54.5639 27.6572 56.014 28.8113 58.0516 28.8113C59.6768 28.8113 60.781 27.7964 61.3685 27.1171C61.4727 26.982 61.6811 27.0475 61.8519 27.2848C62.577 28.267 63.5437 29.6256 64.2354 30.6773C64.4437 30.9801 64.3396 31.2216 64.0604 31.4589C62.9895 32.3756 60.606 33.46 57.9475 33.46C52.6971 33.46 48.8635 30.0676 48.8635 24.2975C48.8635 19.1454 52.3513 15.3765 57.9475 15.3765C62.1978 15.3765 65.7522 18.327 65.7522 23.1108M60.3643 22.8407C60.2268 21.0442 59.1892 19.9557 57.4308 19.9557C55.5306 19.9557 54.7014 21.4166 54.5306 22.8407H60.3685H60.3643Z" fill="url(#paint1_linear_1_4837)"></path><path d="M71.2588 19.99C71.2588 19.99 67.3544 20.0923 65.6626 20.125C65.3167 20.125 65.2126 20.0555 65.2126 19.8181V16.1556C65.2126 15.9182 65.3167 15.8159 65.5251 15.8159H79.5469C79.8219 15.8159 80.0636 15.8814 79.7552 16.3929C77.4759 20.1578 72.4339 28.5018 72.4339 28.5018C72.4339 28.5018 76.8217 28.3995 78.926 28.3995C79.376 28.3995 79.4094 28.4691 79.4094 28.7719V32.6391C79.4094 32.8805 79.376 32.946 78.926 32.946H64.4875C64.0708 32.946 64.0041 32.7782 64.2125 32.4017C67.1835 27.045 71.2588 19.9859 71.2588 19.9859" fill="url(#paint2_linear_1_4837)"></path><path d="M22.0721 6.23604C13.8715 2.96225 4.51671 6.8417 1.18315 14.8911C-2.14624 22.9446 1.81653 32.0949 10.0213 35.3646C10.9422 35.7329 11.8547 35.9988 12.7173 36.1544C14.5257 38.0245 16.1884 39.7882 18.351 41.7484C18.8469 42.1904 19.0802 41.994 19.2636 41.5397C19.8219 40.1811 21.5054 36.1175 21.7637 35.5037C25.7807 34.0387 29.1601 30.9368 30.8935 26.7463C34.2271 18.6969 30.2768 9.50573 22.0763 6.23604M15.9633 29.0789C11.2755 29.0789 7.47525 25.3468 7.47525 20.743C7.47525 16.1392 11.2755 12.4071 15.9633 12.4071C20.6511 12.4071 24.4514 16.1392 24.4514 20.743C24.4514 25.3468 20.6511 29.0789 15.9633 29.0789Z" fill="url(#paint3_linear_1_4837)"></path><defs><linearGradient id="paint0_linear_1_4837" x1="40.6064" y1="15.8208" x2="40.6064" y2="61.2342" gradientUnits="userSpaceOnUse"><stop offset="0.151042" stop-color="#1F1D1F"></stop><stop offset="1" stop-color="white" stop-opacity="0"></stop></linearGradient><linearGradient id="paint1_linear_1_4837" x1="57.3099" y1="15.3765" x2="57.3099" y2="61.9275" gradientUnits="userSpaceOnUse"><stop offset="0.151042" stop-color="#1F1D1F"></stop><stop offset="1" stop-color="white" stop-opacity="0"></stop></linearGradient><linearGradient id="paint2_linear_1_4837" x1="71.9986" y1="15.8159" x2="71.9986" y2="59.9125" gradientUnits="userSpaceOnUse"><stop offset="0.151042" stop-color="#1F1D1F"></stop><stop offset="1" stop-color="white" stop-opacity="0"></stop></linearGradient><linearGradient id="paint3_linear_1_4837" x1="16.0404" y1="5.07373" x2="16.0404" y2="100.122" gradientUnits="userSpaceOnUse"><stop offset="0.151042" stop-color="#1F1D1F"></stop><stop offset="1" stop-color="white" stop-opacity="0"></stop></linearGradient></defs></svg>