<svg xmlns="http://www.w3.org/2000/svg" width="24" height="25" viewBox="0 0 24 25" fill="none"><path d="M20.9737 7.2174C20.5093 7.83692 19.9479 8.37733 19.3112 8.81776C19.3112 8.97959 19.3112 9.14142 19.3112 9.31225C19.3163 12.2511 18.1424 15.0691 16.0527 17.1345C13.9629 19.1999 11.1321 20.3399 8.19491 20.2989C6.49685 20.3046 4.82053 19.9169 3.29728 19.1661C3.21514 19.1302 3.16217 19.049 3.16248 18.9593V18.8604C3.16248 18.7313 3.26709 18.6267 3.39613 18.6267C5.06528 18.5716 6.67488 17.9929 7.9972 16.9724C6.48639 16.9419 5.12705 16.0469 4.50146 14.6707C4.46987 14.5956 4.4797 14.5093 4.52743 14.4432C4.57515 14.3771 4.65386 14.3407 4.73511 14.3471C5.19428 14.3932 5.65804 14.3505 6.10106 14.2212C4.43325 13.875 3.18007 12.4904 3.00072 10.7957C2.99435 10.7144 3.03078 10.6357 3.09686 10.5879C3.16293 10.5402 3.2491 10.5303 3.32424 10.562C3.7718 10.7595 4.25495 10.8635 4.7441 10.8676C3.2827 9.90846 2.65147 8.08405 3.20741 6.42622C3.2648 6.26513 3.40267 6.14612 3.57036 6.11294C3.73804 6.07975 3.91082 6.13728 4.02518 6.26439C5.99725 8.36325 8.7069 9.61396 11.5828 9.75279C11.5092 9.45885 11.473 9.15676 11.475 8.85372C11.5019 7.26472 12.4851 5.84921 13.9643 5.26987C15.4434 4.69054 17.1258 5.06203 18.2239 6.21044C18.9723 6.06785 19.6959 5.81645 20.3716 5.46421C20.4211 5.43331 20.4839 5.43331 20.5334 5.46421C20.5643 5.51373 20.5643 5.57652 20.5334 5.62604C20.2061 6.37552 19.6532 7.00412 18.9518 7.42419C19.566 7.35296 20.1694 7.20807 20.7491 6.99264C20.7979 6.95942 20.862 6.95942 20.9108 6.99264C20.9517 7.01134 20.9823 7.04711 20.9944 7.09042C21.0065 7.13373 20.9989 7.18018 20.9737 7.2174Z" fill="#1F1D1F"></path></svg>