<svg xmlns="http://www.w3.org/2000/svg" width="10" height="24" viewBox="0 0 10 24" fill="none"><path d="M9.5 6H6.5C5.9477 6 5.5 6.44772 5.5 7V10H9.5C9.6137 9.99748 9.7216 10.0504 9.7892 10.1419C9.8568 10.2334 9.8758 10.352 9.84 10.46L9.1 12.66C9.0318 12.8619 8.8431 12.9984 8.63 13H5.5V20.5C5.5 20.7761 5.2761 21 5 21H2.5C2.22386 21 2 20.7761 2 20.5V13H0.5C0.22386 13 0 12.7761 0 12.5V10.5C0 10.2239 0.22386 10 0.5 10H2V7C2 4.79086 3.7909 3 6 3H9.5C9.7761 3 10 3.22386 10 3.5V5.5C10 5.77614 9.7761 6 9.5 6Z" fill="white"></path></svg>