<svg xmlns="http://www.w3.org/2000/svg" width="80" height="42" viewBox="0 0 80 42" fill="none"><path d="M57.9717 11.5796L58.0925 5.24896L63.7846 8.91561L57.9717 11.5796Z" fill="#E0E0E0"></path><path d="M57.1855 10.6324L57.3064 4.3017L62.9984 7.96835L57.1855 10.6324Z" stroke="#F47920" stroke-width="7.02255" stroke-linecap="round" stroke-linejoin="round"></path><path d="M40.4358 28.6746C41.8192 28.6746 42.6109 27.9625 42.9568 27.0459V16.1933C42.9568 15.8863 42.9901 15.8209 43.1985 15.8209H48.553C48.7947 15.8209 48.828 15.8209 48.828 16.2956V32.5458C48.828 32.8159 48.7475 32.9509 48.5863 32.9509H43.5776C43.3026 32.9509 43.1276 32.9182 43.1276 32.4435V30.7452C42.4026 32.7136 40.3983 33.4625 37.7397 33.4625C34.1478 33.4625 32.3519 31.4941 32.3852 27.8643L32.4894 16.3979C32.4894 15.9232 32.5561 15.8209 32.8352 15.8209H38.0523C38.2939 15.8209 38.3606 15.9232 38.3606 16.2956L38.2565 26.4402C38.2565 27.9666 39.2607 28.6787 40.4316 28.6787" fill="url(#paint0_linear_1_2552)"></path><path d="M65.7561 23.1108C65.7561 24.2976 65.6894 24.8418 65.5477 25.4189C65.4769 25.7585 65.3769 25.8281 64.856 25.8281H54.5303C54.5637 27.6573 56.0138 28.8113 58.0514 28.8113C59.6765 28.8113 60.7808 27.7964 61.3683 27.1171C61.4725 26.9821 61.6808 27.0476 61.8517 27.2849C62.5767 28.267 63.5434 29.6257 64.2352 30.6774C64.4435 30.9802 64.3393 31.2216 64.0602 31.459C62.9892 32.3757 60.6057 33.4601 57.9472 33.4601C52.6969 33.4601 48.8633 30.0676 48.8633 24.2976C48.8633 19.1455 52.351 15.3765 57.9472 15.3765C62.1975 15.3765 65.7519 18.327 65.7519 23.1108M60.3641 22.8408C60.2266 21.0443 59.189 19.9557 57.4305 19.9557C55.5304 19.9557 54.7012 21.4167 54.5303 22.8408H60.3682H60.3641Z" fill="url(#paint1_linear_1_2552)"></path><path d="M71.2586 19.9901C71.2586 19.9901 67.3541 20.0924 65.6623 20.1251C65.3165 20.1251 65.2123 20.0555 65.2123 19.8182V16.1556C65.2123 15.9183 65.3165 15.816 65.5248 15.816H79.5466C79.8216 15.816 80.0633 15.8815 79.755 16.393C77.4756 20.1578 72.4336 28.5019 72.4336 28.5019C72.4336 28.5019 76.8214 28.3996 78.9257 28.3996C79.3758 28.3996 79.4091 28.4692 79.4091 28.772V32.6392C79.4091 32.8806 79.3758 32.9461 78.9257 32.9461H64.4873C64.0706 32.9461 64.0039 32.7783 64.2122 32.4018C67.1833 27.0451 71.2586 19.986 71.2586 19.986" fill="url(#paint2_linear_1_2552)"></path><path d="M22.0721 6.2361C13.8715 2.96231 4.51671 6.84176 1.18315 14.8912C-2.14624 22.9447 1.81653 32.0949 10.0213 35.3646C10.9422 35.7329 11.8547 35.9989 12.7173 36.1544C14.5257 38.0246 16.1884 39.7883 18.351 41.7485C18.8469 42.1904 19.0802 41.994 19.2636 41.5398C19.8219 40.1812 21.5054 36.1176 21.7637 35.5037C25.7807 34.0387 29.1601 30.9368 30.8935 26.7464C34.2271 18.697 30.2768 9.50579 22.0763 6.2361M15.9633 29.0789C11.2755 29.0789 7.47525 25.3468 7.47525 20.7431C7.47525 16.1393 11.2755 12.4072 15.9633 12.4072C20.6511 12.4072 24.4514 16.1393 24.4514 20.7431C24.4514 25.3468 20.6511 29.0789 15.9633 29.0789Z" fill="url(#paint3_linear_1_2552)"></path><defs><linearGradient id="paint0_linear_1_2552" x1="40.6064" y1="15.8209" x2="40.6064" y2="61.2342" gradientUnits="userSpaceOnUse"><stop offset="0.151042" stop-color="#1F1D1F"></stop><stop offset="1" stop-color="white" stop-opacity="0"></stop></linearGradient><linearGradient id="paint1_linear_1_2552" x1="57.3097" y1="15.3765" x2="57.3097" y2="61.9276" gradientUnits="userSpaceOnUse"><stop offset="0.151042" stop-color="#1F1D1F"></stop><stop offset="1" stop-color="white" stop-opacity="0"></stop></linearGradient><linearGradient id="paint2_linear_1_2552" x1="71.9984" y1="15.816" x2="71.9984" y2="59.9126" gradientUnits="userSpaceOnUse"><stop offset="0.151042" stop-color="#1F1D1F"></stop><stop offset="1" stop-color="white" stop-opacity="0"></stop></linearGradient><linearGradient id="paint3_linear_1_2552" x1="16.0404" y1="5.07379" x2="16.0404" y2="100.122" gradientUnits="userSpaceOnUse"><stop offset="0.151042" stop-color="#1F1D1F"></stop><stop offset="1" stop-color="white" stop-opacity="0"></stop></linearGradient></defs></svg>