<svg xmlns="http://www.w3.org/2000/svg" width="37" height="34" viewBox="0 0 37 34" fill="none"><path d="M17.1274 1.5698C17.7437 0.143399 19.843 0.143401 20.4594 1.5698L24.0972 9.98867C24.3572 10.59 24.9447 11.0009 25.6191 11.0529L35.0616 11.7816C36.6615 11.905 37.3102 13.8268 36.0913 14.8318L28.8971 20.7635C28.3833 21.1873 28.1588 21.8521 28.3158 22.4855L30.5137 31.3548C30.8861 32.8574 29.1878 34.0452 27.8181 33.24L19.7339 28.4871C19.1565 28.1476 18.4303 28.1476 17.8529 28.4871L9.76865 33.24C8.39893 34.0452 6.70058 32.8574 7.07297 31.3548L9.27094 22.4855C9.42794 21.8521 9.20352 21.1873 8.68968 20.7635L1.49538 14.8318C0.276465 13.8268 0.925185 11.905 2.52504 11.7816L11.9677 11.0529C12.6421 11.0009 13.2296 10.59 13.4895 9.98867L17.1274 1.5698Z" fill="#F47920"></path></svg>