<svg xmlns="http://www.w3.org/2000/svg" width="37" height="34" viewBox="0 0 37 34" fill="none"><path d="M16.851 1.5698C17.4674 0.143399 19.5667 0.143401 20.183 1.5698L23.8208 9.98867C24.0808 10.59 24.6684 11.0009 25.3428 11.0529L34.7853 11.7816C36.3851 11.905 37.0338 13.8268 35.8149 14.8318L28.6208 20.7635C28.1069 21.1873 27.8824 21.8521 28.0394 22.4855L30.2374 31.3548C30.6097 32.8574 28.9115 34.0452 27.5417 33.24L19.4576 28.4871C18.8801 28.1476 18.1539 28.1476 17.5765 28.4871L9.49228 33.24C8.12257 34.0452 6.42421 32.8574 6.7966 31.3548L8.99457 22.4855C9.15157 21.8521 8.92715 21.1873 8.41331 20.7635L1.21902 14.8318C9.74536e-05 13.8268 0.648818 11.905 2.24867 11.7816L11.6913 11.0529C12.3658 11.0009 12.9533 10.59 13.2131 9.98867L16.851 1.5698Z" fill="#F47920"></path></svg>