<svg xmlns="http://www.w3.org/2000/svg" width="200" height="104" viewBox="0 0 200 104" fill="none"><path d="M144.93 27.9439L145.232 12.1172L159.462 21.2838L144.93 27.9439Z" fill="#E0E0E0"></path><path d="M142.961 25.5767L143.263 9.75L157.493 18.9166L142.961 25.5767Z" stroke="#F47920" stroke-width="17.5564" stroke-linecap="round" stroke-linejoin="round"></path><path d="M101.088 70.6831C104.547 70.6831 106.526 68.903 107.391 66.6113V39.4798C107.391 38.7125 107.474 38.5488 107.995 38.5488H121.381C121.986 38.5488 122.069 38.5488 122.069 39.7356V80.3612C122.069 81.0364 121.868 81.374 121.465 81.374H108.943C108.256 81.374 107.818 81.2922 107.818 80.1054V75.8598C106.005 80.7807 100.995 82.6528 94.3484 82.6528C85.3686 82.6528 80.8787 77.7319 80.9621 68.6574L81.2225 39.9913C81.2225 38.8046 81.3892 38.5488 82.0871 38.5488H95.1297C95.7339 38.5488 95.9006 38.8046 95.9006 39.7356L95.6402 65.0972C95.6402 68.9132 98.1507 70.6933 101.078 70.6933" fill="url(#paint0_linear_1_5446)"></path><path d="M164.392 56.7772C164.392 59.7441 164.226 61.1047 163.871 62.5472C163.694 63.3964 163.444 63.5703 162.142 63.5703H136.328C136.411 68.1434 140.036 71.0284 145.13 71.0284C149.193 71.0284 151.954 68.4912 153.423 66.7929C153.683 66.4553 154.204 66.619 154.631 67.2124C156.444 69.6677 158.861 73.0643 160.59 75.6935C161.111 76.4506 160.85 77.0542 160.152 77.6476C157.475 79.9392 151.516 82.6503 144.87 82.6503C131.744 82.6503 122.16 74.1692 122.16 59.7441C122.16 46.8638 130.879 37.4414 144.87 37.4414C155.496 37.4414 164.382 44.8176 164.382 56.7772M150.912 56.102C150.568 51.6107 147.974 48.8894 143.578 48.8894C138.828 48.8894 136.755 52.5417 136.328 56.102H150.923H150.912Z" fill="url(#paint1_linear_1_5446)"></path><path d="M178.148 48.9743C178.148 48.9743 168.387 49.23 164.158 49.3119C163.293 49.3119 163.033 49.1379 163.033 48.5446V39.3882C163.033 38.7948 163.293 38.5391 163.814 38.5391H198.869C199.556 38.5391 200.16 38.7028 199.389 39.9816C193.691 49.3937 181.086 70.2539 181.086 70.2539C181.086 70.2539 192.056 69.9981 197.316 69.9981C198.441 69.9981 198.525 70.172 198.525 70.9291V80.597C198.525 81.2006 198.441 81.3643 197.316 81.3643H161.22C160.178 81.3643 160.012 80.9448 160.533 80.0036C167.96 66.6118 178.148 48.964 178.148 48.964" fill="url(#paint2_linear_1_5446)"></path><path d="M55.1822 14.5894C34.6808 6.40489 11.2937 16.1035 2.95983 36.2271C-5.36365 56.3608 4.54328 79.2364 25.0551 87.4107C27.3573 88.3314 29.6388 88.9964 31.7951 89.3851C36.3163 94.0605 40.4728 98.4699 45.8794 103.37C47.1191 104.475 47.7025 103.984 48.1608 102.849C49.5568 99.452 53.7654 89.2931 54.4113 87.7585C64.4536 84.0959 72.9021 76.3412 77.2358 65.8651C85.5697 45.7415 75.694 22.7636 55.1926 14.5894M39.9103 71.6965C28.1907 71.6965 18.6901 62.3662 18.6901 50.8568C18.6901 39.3474 28.1907 30.0171 39.9103 30.0171C51.6298 30.0171 61.1305 39.3474 61.1305 50.8568C61.1305 62.3662 51.6298 71.6965 39.9103 71.6965Z" fill="url(#paint3_linear_1_5446)"></path><defs><linearGradient id="paint0_linear_1_5446" x1="101.515" y1="38.5488" x2="101.515" y2="152.082" gradientUnits="userSpaceOnUse"><stop stop-color="white"></stop><stop offset="1" stop-color="white" stop-opacity="0"></stop></linearGradient><linearGradient id="paint1_linear_1_5446" x1="143.276" y1="37.4414" x2="143.276" y2="153.819" gradientUnits="userSpaceOnUse"><stop stop-color="white"></stop><stop offset="1" stop-color="white" stop-opacity="0"></stop></linearGradient><linearGradient id="paint2_linear_1_5446" x1="179.998" y1="38.5391" x2="179.998" y2="148.781" gradientUnits="userSpaceOnUse"><stop stop-color="white"></stop><stop offset="1" stop-color="white" stop-opacity="0"></stop></linearGradient><linearGradient id="paint3_linear_1_5446" x1="40.1031" y1="11.6836" x2="40.1031" y2="249.304" gradientUnits="userSpaceOnUse"><stop stop-color="white"></stop><stop offset="1" stop-color="white" stop-opacity="0"></stop></linearGradient></defs></svg>