<svg xmlns="http://www.w3.org/2000/svg" width="37" height="34" viewBox="0 0 37 34" fill="none"><path d="M16.9887 1.5698C17.6051 0.143399 19.7044 0.143401 20.3207 1.5698L23.9585 9.98867C24.2185 10.59 24.8061 11.0009 25.4805 11.0529L34.923 11.7816C36.5228 11.905 37.1715 13.8268 35.9526 14.8318L28.7585 20.7635C28.2446 21.1873 28.0201 21.8521 28.1771 22.4855L30.3751 31.3548C30.7474 32.8574 29.0491 34.0452 27.6794 33.24L19.5953 28.4871C19.0178 28.1476 18.2916 28.1476 17.7142 28.4871L9.62998 33.24C8.26026 34.0452 6.56191 32.8574 6.9343 31.3548L9.13227 22.4855C9.28927 21.8521 9.06485 21.1873 8.551 20.7635L1.35671 14.8318C0.137793 13.8268 0.786513 11.905 2.38637 11.7816L11.829 11.0529C12.5035 11.0009 13.091 10.59 13.3508 9.98867L16.9887 1.5698Z" fill="#F47920"></path></svg>