<svg xmlns="http://www.w3.org/2000/svg" width="37" height="34" viewBox="0 0 37 34" fill="none"><path d="M17.1274 1.60056C17.7437 0.174161 19.843 0.174162 20.4594 1.60056L24.0972 10.0194C24.3572 10.6208 24.9447 11.0316 25.6191 11.0837L35.0616 11.8123C36.6615 11.9358 37.3102 13.8575 36.0913 14.8626L28.8971 20.7943C28.3833 21.2181 28.1588 21.8829 28.3158 22.5163L30.5137 31.3855C30.8861 32.8882 29.1878 34.076 27.8181 33.2708L19.7339 28.5178C19.1565 28.1783 18.4303 28.1783 17.8529 28.5178L9.76865 33.2708C8.39893 34.076 6.70058 32.8882 7.07297 31.3855L9.27094 22.5163C9.42794 21.8829 9.20352 21.2181 8.68968 20.7943L1.49538 14.8626C0.276465 13.8575 0.925185 11.9358 2.52504 11.8123L11.9677 11.0837C12.6421 11.0316 13.2296 10.6208 13.4895 10.0194L17.1274 1.60056Z" fill="#F47920"></path></svg>