<svg xmlns="http://www.w3.org/2000/svg" width="37" height="34" viewBox="0 0 37 34" fill="none"><path d="M16.9887 1.60056C17.6051 0.174161 19.7044 0.174162 20.3207 1.60056L23.9585 10.0194C24.2185 10.6208 24.8061 11.0316 25.4805 11.0837L34.923 11.8123C36.5228 11.9358 37.1715 13.8575 35.9526 14.8626L28.7585 20.7943C28.2446 21.2181 28.0201 21.8829 28.1771 22.5163L30.3751 31.3855C30.7474 32.8882 29.0491 34.076 27.6794 33.2708L19.5953 28.5178C19.0178 28.1783 18.2916 28.1783 17.7142 28.5178L9.62998 33.2708C8.26026 34.076 6.56191 32.8882 6.9343 31.3855L9.13227 22.5163C9.28927 21.8829 9.06485 21.2181 8.551 20.7943L1.35671 14.8626C0.137793 13.8575 0.786513 11.9358 2.38637 11.8123L11.829 11.0837C12.5035 11.0316 13.091 10.6208 13.3508 10.0194L16.9887 1.60056Z" fill="#F47920"></path></svg>