<svg xmlns="http://www.w3.org/2000/svg" width="74" height="65" viewBox="0 0 74 65" fill="none"><path opacity="0.2" d="M55.7994 0.499512C61.3873 0.499512 65.8576 2.47482 69.2104 6.42543C72.4035 10.5341 74 15.8279 74 22.3069C74 31.1563 71.6052 39.1366 66.8155 46.2477C61.8662 53.5168 54.3625 59.6008 44.3042 64.4995L41.6699 60.7069C46.4595 57.8625 50.8501 53.8329 54.8414 48.618C58.6731 43.5612 60.589 38.4254 60.589 33.2106C60.589 31.7884 60.1899 30.6032 59.3916 29.6551C58.5933 28.8649 57.3959 28.4699 55.7994 28.4699C51.808 28.4699 48.4552 27.0477 45.7411 24.2032C42.8673 21.5168 41.4304 18.1983 41.4304 14.2477C41.4304 10.297 42.8673 6.97852 45.7411 4.2921C48.4552 1.76371 51.808 0.499512 55.7994 0.499512ZM14.3689 0.499512C19.9569 0.499512 24.4272 2.47482 27.7799 6.42543C30.973 10.5341 32.5696 15.8279 32.5696 22.3069C32.5696 31.1563 30.1748 39.1366 25.3851 46.2477C20.4358 53.5168 12.932 59.6008 2.87379 64.4995L0.239487 60.7069C5.02913 57.8625 9.41964 53.8329 13.411 48.618C17.2427 43.5612 19.1586 38.4254 19.1586 33.2106C19.1586 31.7884 18.7594 30.6032 17.9612 29.6551C17.1629 28.8649 15.9655 28.4699 14.3689 28.4699C10.3776 28.4699 7.02482 27.0477 4.31068 24.2032C1.4369 21.5168 0 18.1983 0 14.2477C0 10.297 1.4369 6.97852 4.31068 4.2921C7.02482 1.76371 10.3776 0.499512 14.3689 0.499512Z" fill="#D9D9D9"></path></svg>